# constrictor
# Converted from constrictor.json - Elite: The Sharp Kind
# 'pn' comments link a vertex to a face-normal-pool ('vn') entry that
# no face uses directly; only the explosion debris effect reads these.
mtllib palette.mtl

v 20 -7 80
v -20 -7 80
v -54 -7 40
v -54 -7 -40
v -20 13 -40
v 20 13 -40
v 54 -7 -40
v 54 -7 40
v 20 13 5
v -20 13 5
v 20 -7 62
v -20 -7 62
v 25 -7 -25
v -25 -7 -25
v 15 -7 -15
v -15 -7 -15
v 0 -7 0

vn 0 55 15
vn -24 75 20
vn 24 75 20
vn 44 75 0
vn -44 75 0
vn -44 75 0
vn 0 53 0
vn 44 75 0
vn 0 0 -160
vn 0 -27 0

usemtl LightSlateGray
f 2 1 9 10
usemtl Gray
f 2 10 3
usemtl Gray
f 1 8 9
usemtl Goldenrod
f 8 7 9
usemtl Goldenrod
f 10 4 3
usemtl DarkGoldenrod
f 10 5 4
usemtl Gray
f 9 6 5 10
usemtl DarkGoldenrod
f 9 7 6
usemtl SlateGray
f 7 4 5 6
usemtl DimGray
f 4 7 8 1 2 3
usemtl DarkRed
f 13 11 15
usemtl DarkRed
f 16 12 14

# pn 1 1
# pn 1 3
# pn 1 10
# pn 2 1
# pn 2 2
# pn 2 10
# pn 3 2
# pn 3 5
# pn 3 10
# pn 4 5
# pn 4 6
# pn 4 9
# pn 4 10
# pn 5 6
# pn 5 7
# pn 5 9
# pn 6 7
# pn 6 8
# pn 6 9
# pn 7 4
# pn 7 8
# pn 7 9
# pn 7 10
# pn 8 3
# pn 8 4
# pn 8 10
# pn 11 10
# pn 12 10
# pn 13 10
# pn 14 10
# pn 15 10
# pn 16 10
# pn 17 10
# pn 17 1
# pn 17 2
